<?xml version="1.0" encoding="UTF-8"?>
<!DOCTYPE svg PUBLIC "-//W3C//DTD SVG 1.1//EN" "http://www.w3.org/Graphics/SVG/1.1/DTD/svg11.dtd">
<!-- Creator: CorelDRAW 2017 -->
<svg xmlns="http://www.w3.org/2000/svg" xml:space="preserve" width="210mm" height="297mm" version="1.1" style="shape-rendering:geometricPrecision; text-rendering:geometricPrecision; image-rendering:optimizeQuality; fill-rule:evenodd; clip-rule:evenodd"
viewBox="0 0 21000 29700"
 xmlns:xlink="http://www.w3.org/1999/xlink">
 <defs>
  <style type="text/css">
   <![CDATA[
    .fil16 {fill:#21241A}
    .fil23 {fill:#41695D}
    .fil11 {fill:#417921}
    .fil12 {fill:#494D3E}
    .fil3 {fill:#54797A}
    .fil18 {fill:#577A6F}
    .fil20 {fill:#60877B}
    .fil25 {fill:#629C8C}
    .fil24 {fill:#669C8B}
    .fil2 {fill:#699394}
    .fil4 {fill:#81AD11}
    .fil21 {fill:#85AB9F}
    .fil22 {fill:#86B5A6}
    .fil14 {fill:#8BBAAB}
    .fil5 {fill:#98C720}
    .fil17 {fill:#99C9BA}
    .fil26 {fill:#9DC9BB}
    .fil27 {fill:#9EC9BC}
    .fil19 {fill:#A7C9BE}
    .fil6 {fill:#ACDB34}
    .fil9 {fill:#B6E6FA}
    .fil15 {fill:#C0E0D6}
    .fil10 {fill:#C9ED45}
    .fil8 {fill:#D6F3FF}
    .fil13 {fill:#E4F2ED}
    .fil7 {fill:white}
    .fil1 {fill:white;fill-opacity:0.321569}
    .fil28 {fill:white;fill-opacity:0.360784}
    .fil0 {fill:url(#id0)}
   ]]>
  </style>
  <linearGradient id="id0" gradientUnits="userSpaceOnUse" x1="9816.62" y1="14579.7" x2="9816.62" y2="2579.7">
   <stop offset="0" style="stop-opacity:1; stop-color:#C4FFC4"/>
   <stop offset="1" style="stop-opacity:1; stop-color:#4FABE8"/>
  </linearGradient>
 </defs>
 <g id="Layer_x0020_1">
  <metadata id="CorelCorpID_0Corel-Layer"/>
  <g id="_2542963973840">
   <g>
    <rect class="fil0" x="1816.62" y="2579.7" width="16000" height="12000"/>
    <path class="fil1" d="M17816.62 8050.23l0 4485.89 -16000 650.36 0 -6019.19c2598.92,1334.22 5433.38,2180.31 8362.26,2482.97l-1058.34 63.5c-1972.27,118.34 -3950.87,-74.53 -5863.16,-571.5l571.5 317.5c3738.37,2076.87 8207.88,2379.49 12192.09,825.5l-1629.93 254c-1395.11,217.41 -2814.93,224.54 -4212.16,21.17l1248.83 -84.67c2337.37,-158.48 4558.22,-1010.63 6388.91,-2425.53z"/>
    <path class="fil2" d="M17816.62 9648.85l0 2300.89 -16000 0 0 -1399.81c414.61,-153.75 877.54,-164.83 1311.33,-15.26 338.78,116.81 712.73,67.96 1010.13,-131.95 764.66,-514 1679.01,-758.08 2598.11,-693.55 408.28,28.67 771.44,269.82 956.25,635 362.13,715.56 1084.59,1177.71 1886.04,1206.5 240.14,8.63 477.95,-49.71 686.84,-168.48 296.49,-168.58 558.59,-391.47 772.61,-657.02 342.77,-425.29 961.83,-500.37 1396.32,-169.33 597.69,455.38 1368.42,617.97 2099.12,442.81 603.85,-144.75 1172.03,-410.62 1670.08,-781.48 476.45,-354.78 1040.42,-546.81 1613.17,-568.32z"/>
    <path class="fil3" d="M17816.62 10545.13l0 1404.61 -16000 0 0 -854.53c414.61,-93.86 877.54,-100.63 1311.33,-9.32 338.78,71.31 712.73,41.49 1010.13,-80.55 764.66,-313.78 1679.01,-462.78 2598.11,-423.39 408.28,17.51 771.44,164.72 956.25,387.65 362.13,436.82 1084.59,718.95 1886.04,736.52 240.14,5.27 477.95,-30.34 686.84,-102.85 296.49,-102.91 558.59,-238.98 772.61,-401.09 342.77,-259.62 961.83,-305.45 1396.32,-103.37 597.69,278 1368.42,377.25 2099.12,270.32 603.85,-88.36 1172.03,-250.66 1670.08,-477.06 476.45,-216.58 1040.42,-333.81 1613.17,-346.94z"/>
    <path class="fil1" d="M6190.04 2579.7l1004.89 0c64.52,191.28 131.21,380.07 200.03,566.23 289.13,782.12 712.01,1363.34 1201.23,1651 324.25,190.65 603.69,578.77 792.48,1100.67l103.37 285.75c-284.28,-500.57 -638.69,-845.09 -1023.38,-994.83 -547.12,-212.96 -1050.4,-706.83 -1451.69,-1424.54 -251.27,-449.4 -528.58,-846.55 -826.93,-1184.28z"/>
    <path class="fil4" d="M2023.81 11040.54c90.34,0 172.94,53.94 236.36,143.13 91.06,-225.98 251.18,-375.96 433.51,-375.96 239.41,0 440.53,258.54 497.28,608.26 56.92,-56.69 124.97,-89.68 198.1,-89.68 103.57,0 196.98,66.13 262.96,172.11 81.02,-244.51 237.59,-410.23 417.49,-410.23 202.21,0 374.98,209.35 444.06,504.68 77.88,-118.7 186.79,-192.47 307.36,-192.47 154.58,0 290.03,121.22 365.43,302.99 52,-45.96 114.73,-72.81 182.26,-72.81 57.81,0 112.09,19.7 159.14,54.19 27.83,-335.44 245.65,-596.58 510.26,-596.58 214.38,0 398.03,171.42 474.84,414.87 41.47,-28.5 87.66,-44.44 136.34,-44.44 67.74,0 130.63,30.81 182.72,83.49 72.51,-265.03 260.67,-453.92 481.39,-453.92 213.57,0 396.66,176.84 473.98,428.4 67.23,-56.36 150.37,-89.7 240.39,-89.7 80.35,0 155.24,26.55 218.21,72.33 58.19,-315.81 258.26,-548.59 496.17,-548.59 218.8,0 405.6,196.92 479.46,474.22 87.27,-74.96 197.34,-119.67 316.95,-119.67 94.42,0 182.86,27.89 258.86,76.49 61.17,-271.82 205.36,-462.78 373.5,-462.78 192.49,0 353.59,250.27 394.66,585.62 51.23,-36.03 109.61,-56.46 171.58,-56.46 80.21,0 154.41,34.19 214.85,92.19 86.47,-443.86 370.93,-769.52 708.54,-769.52 236.14,0 446.27,159.34 580.85,406.99 79.36,-127.26 184.56,-204.79 299.99,-204.79 168.41,0 315.05,165.01 391.38,408.78 62.8,-48.44 137.39,-76.52 217.41,-76.52 189.24,0 348.15,157.01 392.48,369.16 8.4,-0.95 16.92,-1.43 25.54,-1.43 55.09,0 106.03,19.88 147.45,53.58 -1.25,-21.12 -1.92,-42.51 -1.92,-64.13 0,-393.08 209.67,-711.73 468.31,-711.73 159.36,0 300.1,121 384.69,305.82 69.03,-69.17 154.23,-110.04 246.43,-110.04 35.53,0 70.03,6.09 102.95,17.5 62.65,-392.97 290.77,-684.25 562.64,-684.25 276.18,0 507.24,300.59 565.51,703.02 74.39,-60.14 160.29,-94.49 251.79,-94.49 141.56,0 269.73,82.13 362.59,214.94 86.52,-132.58 207.36,-214.94 341.08,-214.94 102.58,0 197.58,48.46 275.33,130.87 79.2,-266.3 239.08,-448.34 423.42,-448.34 40.82,0 80.43,8.94 118.24,25.73l0 1604.74c-37.81,16.79 -77.42,25.73 -118.24,25.73 -120.56,0 -230.63,-77.89 -314.54,-206.24 -86.69,176.42 -226.49,290.97 -384.21,290.97 -125.62,0 -239.87,-72.68 -324.98,-191.4 -93.85,146.91 -228.76,239.04 -378.69,239.04 -213.09,0 -395.85,-186.1 -473.47,-451.06 -96.2,110.47 -215.1,175.81 -343.83,175.81 -133.84,0 -257.07,-70.63 -355.19,-189.19 -76.32,116.12 -187.1,189.2 -310.4,189.2 -108.33,0 -207.01,-56.41 -281.13,-148.86 -85.78,146.55 -210.78,238.9 -349.99,238.9 -159.04,0 -299.55,-120.52 -384.18,-304.71 -39.18,98.48 -127.27,167.13 -229.66,167.13 -60.86,0 -116.65,-24.26 -160.14,-64.6 -70.03,70.05 -159.89,112.15 -257.88,112.15 -86.54,0 -166.72,-32.85 -232.52,-88.77 -79.63,219 -218.39,364.01 -376.27,364.01 -99.9,0 -192.14,-58.08 -266.59,-156.19 -131.58,285.36 -357.54,473.69 -614.25,473.69 -291.44,0 -543.28,-242.68 -662.34,-594.58 -66.63,89.36 -158.98,144.71 -261.05,144.71 -120.28,0 -227.08,-76.86 -294.18,-195.68 -71.88,121.58 -167.32,195.68 -272.06,195.68 -98.77,0 -189.27,-65.92 -259.54,-175.39 -93.56,108.01 -225.98,175.4 -372.82,175.4 -173.22,0 -326.38,-93.77 -419.34,-237.38 -93.78,145.95 -227.99,237.39 -377.07,237.39 -157.48,0 -298.37,-102.03 -392.53,-262.59 -73.97,109.79 -190.61,180.63 -321.85,180.63 -118.86,0 -225.76,-58.09 -299.82,-150.61 -93.38,173.07 -244.27,285.53 -414.55,285.53 -160.85,0 -304.38,-100.33 -398.5,-257.31 -58.96,123.65 -155.95,204.36 -265.61,204.36 -104.07,0 -196.72,-72.68 -256.29,-185.78 -92.18,115.08 -217.2,185.79 -354.89,185.79 -145.32,0 -276.52,-78.78 -369.9,-205.35 -49.59,151.85 -165.02,258.3 -299.5,258.3 -73,0 -140.39,-31.38 -194.68,-84.34 -77.32,165.99 -206.57,274.8 -353.01,274.8 -158.21,0 -296.37,-126.99 -370.64,-315.9 -86.9,191.84 -225.11,315.91 -380.78,315.91 -180.74,0 -337.97,-167.25 -418.65,-413.66 -65.92,104.9 -158.84,170.24 -261.8,170.24 -132.92,0 -249.1,-108.93 -312.05,-271.26 -94.01,166.41 -230.9,271.26 -383.33,271.26 -177.84,0 -334.54,-142.66 -426.65,-359.38 -64.26,95.07 -149.59,153.01 -243.22,153.01 -77.06,0 -148.48,-39.28 -207.19,-106.18l0 -967.68c58.71,-66.9 130.13,-106.18 207.19,-106.18z"/>
    <path class="fil5" d="M17816.62 10796.43l0 841.49c-37.81,17.34 -77.42,26.85 -118.24,27.45 -120.56,1.75 -230.63,-74.53 -314.54,-201.66 -86.69,177.69 -226.49,294.27 -384.21,296.57 -125.62,1.84 -239.87,-69.18 -324.98,-186.66 -93.85,148.28 -228.76,242.38 -378.69,244.56 -213.09,3.11 -395.85,-180.32 -473.47,-444.15 -96.2,111.87 -215.1,178.94 -343.83,180.82 -133.84,1.95 -257.07,-66.88 -355.19,-184.01 -76.32,117.23 -187.1,191.93 -310.4,193.73 -108.33,1.58 -207.01,-53.39 -281.13,-144.76 -85.78,147.8 -210.78,241.97 -349.99,244 -159.04,2.32 -299.55,-116.15 -384.18,-299.11 -15.23,38.49 -37.84,72.58 -65.81,99.97 56.36,-296.91 236.48,-514.06 449.99,-514.06 159.36,0 300.1,121 384.69,305.82 69.03,-69.17 154.23,-110.04 246.43,-110.04 35.53,0 70.03,6.09 102.95,17.5 62.65,-392.97 290.77,-684.25 562.64,-684.25 276.18,0 507.24,300.59 565.51,703.02 74.39,-60.14 160.29,-94.49 251.79,-94.49 141.56,0 269.73,82.13 362.59,214.94 86.52,-132.58 207.36,-214.94 341.08,-214.94 102.58,0 197.58,48.46 275.33,130.87 79.2,-266.3 239.08,-448.34 423.42,-448.34 40.82,0 80.43,8.94 118.24,25.73zm-4330.92 724.45c-28.61,-10.72 -54.87,-27.1 -77.73,-47.97 -70.03,71.08 -159.89,114.49 -257.88,115.91 -86.54,1.27 -166.72,-30.41 -232.52,-85.38 -79.63,220.17 -218.39,367.2 -376.27,369.5 -99.9,1.46 -192.14,-55.28 -266.59,-152.3 -131.58,287.28 -357.54,478.9 -614.25,482.64 -291.44,4.25 -543.28,-234.75 -662.34,-584.92 -66.63,90.33 -158.98,147.03 -261.05,148.52 -120.28,1.75 -227.08,-73.55 -294.18,-191.39 -71.88,122.63 -167.32,198.12 -272.06,199.65 -98.77,1.44 -189.27,-63.17 -259.54,-171.61 -93.56,109.37 -225.98,178.69 -372.82,180.84 -173.22,2.52 -326.38,-89.02 -419.34,-231.27 -93.78,147.32 -227.99,240.71 -377.07,242.89 -157.48,2.29 -298.37,-97.68 -392.53,-256.87 -73.97,110.87 -190.61,183.41 -321.85,185.32 -118.86,1.74 -225.76,-54.79 -299.82,-146.23 -93.38,174.43 -244.27,289.09 -414.55,291.57 -160.85,2.35 -304.38,-95.89 -398.5,-251.5 -58.96,124.51 -155.95,206.64 -265.61,208.23 -104.07,1.52 -196.72,-69.81 -256.29,-182.04 -92.18,116.43 -217.2,188.96 -354.89,190.97 -145.32,2.11 -276.52,-74.75 -369.9,-199.96 -49.59,152.57 -165.02,260.71 -299.5,262.67 -73,1.06 -140.39,-29.34 -194.68,-81.51 -77.32,167.12 -206.57,277.82 -353.01,279.95 -158.21,2.31 -296.37,-122.67 -370.64,-310.49 -86.9,193.1 -225.11,319.19 -380.78,321.46 -180.74,2.63 -337.97,-162.32 -418.65,-407.56 -65.92,105.86 -158.84,172.56 -261.8,174.06 -132.92,1.94 -249.1,-105.3 -312.05,-266.71 -94.01,167.78 -230.9,274.63 -383.33,276.85 -177.84,2.59 -334.54,-137.78 -426.65,-353.16 -64.26,96.01 -149.59,155.19 -243.22,156.56 -77.06,1.12 -148.48,-37.11 -207.19,-103.16l0 -437.72c58.71,-66.9 130.13,-106.18 207.19,-106.18 90.34,0 172.94,53.94 236.36,143.13 91.06,-225.98 251.18,-375.96 433.51,-375.96 239.41,0 440.53,258.54 497.28,608.26 56.92,-56.69 124.97,-89.68 198.1,-89.68 103.57,0 196.98,66.13 262.96,172.11 81.02,-244.51 237.59,-410.23 417.49,-410.23 202.21,0 374.98,209.35 444.06,504.68 77.88,-118.7 186.79,-192.47 307.36,-192.47 154.58,0 290.03,121.22 365.43,302.99 52,-45.96 114.73,-72.81 182.26,-72.81 57.81,0 112.09,19.7 159.14,54.19 27.83,-335.44 245.65,-596.58 510.26,-596.58 214.38,0 398.03,171.42 474.84,414.87 41.47,-28.5 87.66,-44.44 136.34,-44.44 67.74,0 130.63,30.81 182.72,83.49 72.51,-265.03 260.67,-453.92 481.39,-453.92 213.57,0 396.66,176.84 473.98,428.4 67.23,-56.36 150.37,-89.7 240.39,-89.7 80.35,0 155.24,26.55 218.21,72.33 58.19,-315.81 258.26,-548.59 496.17,-548.59 218.8,0 405.6,196.92 479.46,474.22 87.27,-74.96 197.34,-119.67 316.95,-119.67 94.42,0 182.86,27.89 258.86,76.49 61.17,-271.82 205.36,-462.78 373.5,-462.78 192.49,0 353.59,250.27 394.66,585.62 51.23,-36.03 109.61,-56.46 171.58,-56.46 80.21,0 154.41,34.19 214.85,92.19 86.47,-443.86 370.93,-769.52 708.54,-769.52 236.14,0 446.27,159.34 580.85,406.99 79.36,-127.26 184.56,-204.79 299.99,-204.79 168.41,0 315.05,165.01 391.38,408.78 62.8,-48.44 137.39,-76.52 217.41,-76.52 139.7,0 262.86,85.57 335.61,215.72z"/>
    <rect class="fil6" x="1816.62" y="11949.74" width="16000" height="2629.96"/>
    <polygon class="fil5" points="1816.62,13498.65 17816.62,12905.99 17816.62,14579.7 1816.62,14579.7 "/>
    <g>
     <path class="fil7" d="M12634.21 6077.89c154.88,-822.36 609.67,-1530.2 1155.61,-1798.55 545.93,-268.35 1077.54,-45.37 1350.73,566.57l41.25 -127.17c157.84,-486.5 500.1,-814.66 825.68,-791.67 325.59,22.99 548.48,391.06 537.7,887.97l920.04 -94.76 -6310.01 2621.44 253.47 -143.19 75.66 -323.33c81.29,-347.49 278.91,-637.96 511.36,-751.63 232.45,-113.67 460.36,-31.28 589.76,213.17l48.75 -258.85z"/>
     <path class="fil8" d="M12634.2 6077.88c44.3,-235.18 113.16,-460.97 201.63,-669.83 195.46,297.69 502.35,501.06 856.53,550.17 502.72,69.7 1005.87,-184.51 1282.86,-648.17l205.14 -343.37c356.52,94.57 739.28,1.29 1030.74,-251.18 110.76,-95.94 203.28,-210.52 274.81,-337.31 41.5,127 62.78,275.08 59.27,436.85l920.03 -94.76 -6310 2621.44 253.47 -143.18 75.66 -323.34c11.31,-48.35 24.88,-95.59 40.48,-141.41 179.18,80.99 388.26,85.31 581.68,0.18 203.52,-89.58 357.43,-263.97 432.64,-472.19 16.56,22.99 32.04,47.98 46.32,74.96l48.74 -258.86zm342.74 -277.7c110.95,-21.26 182.79,90.29 160.46,249.16 -22.33,158.86 -130.38,304.89 -241.34,326.14 -110.95,21.26 -182.79,-90.29 -160.46,-249.16 22.33,-158.86 130.39,-304.89 241.34,-326.14z"/>
     <path class="fil9" d="M11155.21 7341.72c1766.73,-765.58 3374.06,-1446.79 5205.57,-2257.59 666.55,-295.08 1086.32,-392.13 1189.83,-355.84 95.82,33.6 -844.02,726.45 -1345.23,937.27 -1857.04,781.16 -3030.32,981.48 -5050.17,1676.16z"/>
    </g>
    <g>
     <path class="fil7" d="M6649.75 3763.98l-182.4 -65.21 -49.44 -144.52c-39.88,-116.57 -121.65,-205.58 -224.18,-244.03 -102.54,-38.46 -215.79,-22.59 -310.51,43.5l-40.28 -105.24c-87.36,-228.2 -295.27,-356.64 -510.22,-315.2 -197.25,38.02 -354.76,195.67 -404.74,415.61l-271.03 10.83 1992.8 404.26z"/>
     <path class="fil8" d="M6649.75 3763.98l-182.4 -65.21 -30.97 -90.52c-71.54,6.4 -144.33,-2.85 -213.12,-28 -124.68,-45.59 -225.69,-139.55 -280.17,-260.6 -20.56,9.26 -40.6,20.62 -59.87,34.07l-25.06 -65.48c-155.07,139.37 -370.81,193.91 -575.77,141.79 -125.16,-31.83 -234.85,-100.52 -317.16,-193.93 -15.65,35.34 -28.22,73.04 -37.25,112.79l-271.03 10.83 1992.8 404.26z"/>
     <path class="fil9" d="M6649.75 3763.98c-566.34,-121.83 -1080.92,-228.31 -1668.75,-359.5 -213.94,-47.75 -344.88,-52.49 -374.61,-36.48 -27.52,14.82 285.92,161.11 446.31,193.85 594.28,121.34 957.26,114.36 1597.05,202.13z"/>
    </g>
    <polygon class="fil5" points="1816.62,13264.72 13269.15,12563.33 1816.62,12944.34 "/>
    <path class="fil10" d="M15687.46 11949.74l-13301.64 613.59 4602.13 -465.83 -5171.33 116.55 0 -264.31 13870.84 0zm2129.16 0l-5798.95 412.39 5798.95 -148.17 0 -264.22z"/>
    <g>
     <path class="fil11" d="M12329.29 13771.45l0 -74.1c0,-306.27 -200.38,-576.48 -493.45,-665.41l72.76 -3.97c106.57,-5.81 210.89,32.13 288.81,105.06 77.92,72.93 122.69,174.51 123.94,281.23 1.58,135.29 17.1,270.06 46.3,402.17l-38.36 -44.98z"/>
     <path class="fil11" d="M12324.16 13742.84l0 -89.76c0,-371.02 242.74,-698.35 597.76,-806.07l-88.14 -4.81c-129.1,-7.04 -255.47,38.92 -349.86,127.27 -94.39,88.34 -148.63,211.39 -150.14,340.67 -1.92,163.89 -20.72,327.15 -56.09,487.19l46.47 -54.49z"/>
    </g>
    <g>
     <path class="fil11" d="M16487.61 13579.44l0 -27.61c0,-114.13 -74.66,-214.82 -183.87,-247.95l27.11 -1.48c39.71,-2.17 78.59,11.97 107.62,39.15 29.04,27.17 45.72,65.02 46.18,104.79 0.59,50.41 6.38,100.63 17.26,149.86l-14.3 -16.76z"/>
     <path class="fil11" d="M16485.7 13568.78l0 -33.45c0,-138.25 90.45,-260.22 222.74,-300.36l-32.84 -1.8c-48.11,-2.62 -95.2,14.51 -130.37,47.43 -35.17,32.92 -55.38,78.77 -55.94,126.94 -0.72,61.07 -7.72,121.91 -20.9,181.54l17.31 -20.3z"/>
     <path class="fil11" d="M16480.16 13535.73l6.78 -61.91c15.56,-141.9 -34.25,-283.18 -135.37,-383.94l0 22.03c0,68.64 26.65,134.6 74.33,183.98 50.44,52.24 69.52,127.26 50.16,197.26l4.1 42.58z"/>
    </g>
    <g>
     <path class="fil11" d="M11746.27 13579.44l0 -27.61c0,-114.13 -74.66,-214.82 -183.87,-247.95l27.11 -1.48c39.71,-2.17 78.59,11.97 107.62,39.15 29.04,27.17 45.72,65.02 46.18,104.79 0.59,50.41 6.38,100.63 17.26,149.86l-14.3 -16.76z"/>
     <path class="fil11" d="M11744.36 13568.78l0 -33.45c0,-138.25 90.45,-260.22 222.74,-300.36l-32.84 -1.8c-48.11,-2.62 -95.2,14.51 -130.37,47.43 -35.17,32.92 -55.38,78.77 -55.94,126.94 -0.72,61.07 -7.72,121.91 -20.9,181.54l17.31 -20.3z"/>
     <path class="fil11" d="M11738.82 13535.73l6.78 -61.91c15.56,-141.9 -34.25,-283.18 -135.37,-383.94l0 22.03c0,68.64 26.65,134.6 74.33,183.98 50.44,52.24 69.52,127.26 50.16,197.26l4.1 42.58z"/>
    </g>
    <g>
     <path class="fil11" d="M5214.55 13715.58l0 -46.69c0,-192.98 -126.26,-363.24 -310.92,-419.27l45.85 -2.5c67.14,-3.66 132.88,20.24 181.97,66.19 49.1,45.96 77.31,109.96 78.1,177.21 0.99,85.24 10.77,170.16 29.17,253.4l-24.17 -28.34z"/>
     <path class="fil11" d="M5211.32 13697.55l0 -56.56c0,-233.77 152.94,-440.02 376.64,-507.9l-55.53 -3.03c-81.35,-4.43 -160.97,24.53 -220.45,80.19 -59.48,55.67 -93.65,133.2 -94.6,214.66 -1.21,103.27 -13.05,206.14 -35.34,306.98l29.28 -34.34z"/>
     <path class="fil11" d="M5201.94 13641.67l11.48 -104.68c26.31,-239.95 -57.92,-478.85 -228.91,-649.23l0 37.25c0,116.07 45.06,227.6 125.68,311.1 85.3,88.34 117.56,215.19 84.83,333.55l6.92 72.01z"/>
    </g>
    <g>
     <path class="fil11" d="M5492.07 13600.05l0 -32.96c0,-136.2 89.11,-256.37 219.45,-295.91l-32.36 -1.77c-47.4,-2.58 -93.79,14.29 -128.44,46.72 -34.65,32.43 -54.56,77.61 -55.12,125.07 -0.7,60.16 -7.6,120.1 -20.59,178.85l17.06 -20z"/>
     <path class="fil11" d="M5494.35 13587.32l0 -39.92c0,-164.99 -107.95,-310.56 -265.83,-358.47l39.2 -2.14c57.41,-3.13 113.61,17.31 155.59,56.6 41.97,39.29 66.09,94.01 66.77,151.51 0.85,72.88 9.21,145.49 24.94,216.66l-20.67 -24.24z"/>
    </g>
    <g>
     <rect class="fil12" x="1816.62" y="13928.83" width="16000" height="650.87"/>
     <polygon class="fil13" points="15229.9,13928.83 15320.09,13465.86 15441.18,13494.92 17816.62,13494.92 17816.62,13554.5 15361.27,13928.83 "/>
     <polygon class="fil14" points="17816.62,13928.83 17816.62,13501.53 15443.04,13527.42 15401.05,13569.74 15361.27,13928.83 "/>
     <path class="fil15" d="M15320.09 13465.86l2496.53 -29.09 0 58.15 -2375.44 0 -121.09 -29.06zm-5173.46 0l2401.2 -0.01 95.33 29.07 -2375.44 0 -121.09 -29.06zm2586.74 0l2401.2 -0.01 95.34 29.07 -2375.45 0 -121.09 -29.06z"/>
     <polygon class="fil16" points="17816.62,14254.27 15502.46,14254.27 15361.27,14046.32 15420.01,14254.27 12824.8,14254.27 12770.46,14058.17 12764.26,14254.27 10248.05,14254.27 10205.72,14046.14 10181.91,14254.27 7673.64,14254.27 7602.2,14017.04 7566.22,14254.27 5075.41,14254.27 5019.85,14035.56 5011.91,14254.27 1816.62,14254.27 1816.62,13928.83 12734.62,13928.83 12774.55,13928.83 17816.62,13928.83 "/>
     <path class="fil13" d="M12643.19 13928.83l90.18 -462.97 121.09 29.06 2375.45 0 11.46 60.19 -2466.82 373.72 -131.36 0zm-2586.74 0l90.18 -462.97 121.09 29.06 2375.44 0 11.46 60.19 -2466.81 373.72 -131.36 0z"/>
     <polygon class="fil14" points="12734.62,13928.83 12643.16,13501.53 10269.58,13527.42 10227.59,13569.74 10187.81,13928.83 "/>
     <polygon class="fil17" points="15321.36,13928.83 15229.91,13501.53 12856.32,13527.42 12814.33,13569.74 12774.55,13928.83 "/>
     <path class="fil18" d="M14254.78 13480.39l50.89 21.14 55.39 89.07 0 -95.68 -106.28 -14.53zm-2586.75 0l50.89 21.14 55.39 89.07 0 -95.68 -106.28 -14.53zm2.16 448.44l18.73 -82.48 -44.49 -87.77 12.95 87.96 -32.92 82.29 45.73 0zm-1032.21 0l-35.69 -44.77 15.28 -73.76 20.56 73.76 40.42 44.77 -40.57 0zm5420.4 -445.82l50.89 21.14 55.39 89.07 0 -95.68 -106.28 -14.53zm9.65 445.82l26.24 -85.12 -0.48 -85.13 26.73 91.94 -6.76 78.31 -45.73 0zm1435.12 0l-48.31 -129.44 16.1 -129.44 -36.08 129.44 27.71 129.44 40.58 0zm-3848.15 0l-26.24 -85.12 0.48 -85.13 -26.73 91.94 6.76 78.31 45.73 0zm-430.28 0l48.31 -129.44 -16.11 -129.44 36.08 129.44 -27.7 129.44 -40.58 0z"/>
     <polygon class="fil13" points="7474.8,13928.83 7564.98,13465.86 7686.07,13494.92 10061.51,13494.92 10072.97,13555.11 7606.16,13928.83 "/>
     <polygon class="fil19" points="10152.97,13928.83 10061.51,13501.53 7687.93,13527.42 7645.94,13569.74 7606.16,13928.83 "/>
     <polygon class="fil15" points="7564.98,13465.86 9966.18,13465.85 10061.51,13494.92 7686.07,13494.92 "/>
     <path class="fil20" d="M8497.15 13490.47l15.41 16.83 31.53 50.71 0 -54.47 -46.94 -13.07zm1497.58 438.36l8.82 -119.52 -34.57 -50.73 8.33 57.54 -28.3 112.71 45.72 0zm-1938.4 0l6.73 -31.43 15.13 -23.56 -1.52 23.56 7.22 31.43 -27.56 0z"/>
     <path class="fil21" d="M9180.06 13834.86c23.75,0 43.01,6.51 43.01,14.53 0,8.02 -19.26,14.54 -43.01,14.54 -23.75,0 -43.01,-6.52 -43.01,-14.54 0,-8.02 19.26,-14.53 43.01,-14.53z"/>
     <path class="fil21" d="M9890.21 13622.66c19.57,0 35.44,6.68 35.44,14.92 0,8.25 -15.87,14.93 -35.44,14.93 -19.56,0 -35.43,-6.68 -35.43,-14.93 0,-8.24 15.87,-14.92 35.43,-14.92z"/>
     <path class="fil21" d="M7818.78 13821.1c19.57,0 35.44,6.68 35.44,14.92 0,8.24 -15.87,14.93 -35.44,14.93 -19.57,0 -35.43,-6.69 -35.43,-14.93 0,-8.24 15.86,-14.92 35.43,-14.92z"/>
     <path class="fil21" d="M8938.01 13592.97c27.22,0 49.28,9.3 49.28,20.76 0,11.46 -22.06,20.76 -49.28,20.76 -27.22,0 -49.28,-9.3 -49.28,-20.76 0,-11.46 22.06,-20.76 49.28,-20.76z"/>
     <polygon class="fil13" points="4888.05,13928.83 4978.23,13465.86 5099.33,13494.92 7474.77,13494.92 7486.23,13555.11 5019.42,13928.83 "/>
     <polygon class="fil22" points="7566.22,13928.83 7474.77,13501.53 5101.19,13527.42 5059.2,13569.74 5019.42,13928.83 "/>
     <polygon class="fil15" points="4978.23,13465.86 7379.43,13465.85 7474.77,13494.92 5099.33,13494.92 "/>
     <path class="fil23" d="M6499.64 13480.39l50.89 21.14 55.39 89.07 0 -95.68 -106.28 -14.53zm-599.78 448.44l-26.24 -85.12 0.48 -85.13 -26.73 91.94 6.76 78.31 45.73 0zm-430.28 0l48.31 -129.44 -16.11 -129.44 36.08 129.44 -27.7 129.44 -40.58 0z"/>
     <path class="fil24" d="M5250.56 13622.66c19.57,0 35.43,6.68 35.43,14.92 0,8.25 -15.86,14.93 -35.43,14.93 -19.57,0 -35.43,-6.68 -35.43,-14.93 0,-8.24 15.86,-14.92 35.43,-14.92zm1608.7 168.75c27.23,0 49.28,9.3 49.28,20.76 0,11.46 -22.05,20.76 -49.28,20.76 -27.22,0 -49.27,-9.3 -49.27,-20.76 0,-11.46 22.05,-20.76 49.27,-20.76zm444.21 -168.75c19.57,0 35.43,6.68 35.43,14.92 0,8.25 -15.86,14.93 -35.43,14.93 -19.57,0 -35.43,-6.68 -35.43,-14.93 0,-8.24 15.86,-14.92 35.43,-14.92zm-1170.53 151.35c23.76,0 43.01,6.51 43.01,14.53 0,8.03 -19.25,14.54 -43.01,14.54 -23.75,0 -43.01,-6.51 -43.01,-14.54 0,-8.02 19.26,-14.53 43.01,-14.53z"/>
     <polygon class="fil13" points="2303.8,13928.83 2393.98,13465.86 2515.07,13494.92 4890.51,13494.92 4901.98,13555.11 2435.16,13928.83 "/>
     <polygon class="fil19" points="4981.97,13928.83 4890.51,13501.53 2516.93,13527.42 2474.94,13569.74 2435.16,13928.83 "/>
     <polygon class="fil15" points="2393.98,13465.86 4795.18,13465.85 4890.51,13494.92 2515.07,13494.92 "/>
     <path class="fil20" d="M3399.46 13480.39l50.89 21.14 55.39 89.07 0 -95.68 -106.28 -14.53zm704.61 448.44l-26.24 -85.12 0.48 -85.13 -26.73 91.94 6.76 78.31 45.73 0zm-1218.74 0l-5.56 -54.46 32.46 -70.8 -12.49 70.8 26.17 54.46 -40.58 0z"/>
     <path class="fil21" d="M4101.68 13620.55c23.75,0 43.01,6.51 43.01,14.53 0,8.02 -19.26,14.54 -43.01,14.54 -23.75,0 -43.02,-6.52 -43.02,-14.54 0,-8.02 19.27,-14.53 43.02,-14.53z"/>
     <path class="fil21" d="M4716.57 13752.31c19.57,0 35.43,6.68 35.43,14.92 0,8.24 -15.86,14.93 -35.43,14.93 -19.57,0 -35.43,-6.69 -35.43,-14.93 0,-8.24 15.86,-14.92 35.43,-14.92z"/>
     <ellipse class="fil21" cx="2666.31" cy="13637.58" rx="35.43" ry="14.92"/>
     <path class="fil21" d="M3677.05 13817.86c27.21,0 49.28,9.3 49.28,20.76 0,11.46 -22.07,20.76 -49.28,20.76 -27.21,0 -49.27,-9.3 -49.27,-20.76 0,-11.46 22.06,-20.76 49.27,-20.76z"/>
     <polygon class="fil13" points="1816.62,13494.92 2294.36,13494.92 2305.83,13555.11 1816.62,13629.22 "/>
     <polygon class="fil14" points="2385.82,13928.83 2294.36,13501.53 1816.62,13506.74 1816.62,13928.83 "/>
     <polygon class="fil15" points="1816.62,13465.85 2199.03,13465.85 2294.36,13494.92 1816.62,13494.92 "/>
     <path class="fil25" d="M2123.07 13622.66c19.57,0 35.43,6.68 35.43,14.92 0,8.25 -15.86,14.93 -35.43,14.93 -19.57,0 -35.43,-6.68 -35.43,-14.93 0,-8.24 15.86,-14.92 35.43,-14.92z"/>
     <path class="fil25" d="M13888.08 13774.01c23.76,0 43.01,6.51 43.01,14.53 0,8.03 -19.25,14.54 -43.01,14.54 -23.75,0 -43.02,-6.51 -43.02,-14.54 0,-8.02 19.27,-14.53 43.02,-14.53zm-2586.75 0c23.76,0 43.02,6.51 43.02,14.53 0,8.03 -19.26,14.54 -43.02,14.54 -23.75,0 -43.01,-6.51 -43.01,-14.54 0,-8.02 19.26,-14.53 43.01,-14.53zm-882.38 -151.35c19.57,0 35.44,6.68 35.44,14.92 0,8.25 -15.87,14.93 -35.44,14.93 -19.56,0 -35.43,-6.68 -35.43,-14.93 0,-8.24 15.87,-14.92 35.43,-14.92zm1608.71 168.75c27.22,0 49.28,9.3 49.28,20.76 0,11.46 -22.06,20.76 -49.28,20.76 -27.22,0 -49.28,-9.3 -49.28,-20.76 0,-11.46 22.06,-20.76 49.28,-20.76zm444.2 -168.75c19.57,0 35.44,6.68 35.44,14.92 0,8.25 -15.87,14.93 -35.44,14.93 -19.56,0 -35.43,-6.68 -35.43,-14.93 0,-8.24 15.87,-14.92 35.43,-14.92zm533.83 0c19.58,0 35.44,6.68 35.44,14.92 0,8.25 -15.86,14.93 -35.44,14.93 -19.56,0 -35.42,-6.68 -35.42,-14.93 0,-8.24 15.86,-14.92 35.42,-14.92zm3648.69 22.86c47.51,0 86.02,13.02 86.02,29.07 0,16.05 -38.51,29.07 -86.02,29.07 -47.51,0 -86.03,-13.02 -86.03,-29.07 0,-16.05 38.52,-29.07 86.03,-29.07zm750.55 -83.35c29.76,0 53.89,10.49 53.89,23.44 0,12.95 -24.13,23.44 -53.89,23.44 -29.76,0 -53.89,-10.49 -53.89,-23.44 0,-12.95 24.13,-23.44 53.89,-23.44zm-1789.8 293.32c19.57,0 35.43,6.68 35.43,14.92 0,8.25 -15.86,14.93 -35.43,14.93 -19.57,0 -35.43,-6.68 -35.43,-14.93 0,-8.24 15.86,-14.92 35.43,-14.92zm-1000.73 -64.08c27.22,0 49.28,9.29 49.28,20.76 0,11.47 -22.06,20.76 -49.28,20.76 -27.21,0 -49.27,-9.29 -49.27,-20.76 0,-11.47 22.06,-20.76 49.27,-20.76zm444.21 -168.75c19.57,0 35.43,6.68 35.43,14.92 0,8.25 -15.86,14.93 -35.43,14.93 -19.57,0 -35.43,-6.68 -35.43,-14.93 0,-8.24 15.86,-14.92 35.43,-14.92z"/>
     <polygon class="fil26" points="10738.07,13522.31 10779.48,13928.83 11258.39,13928.83 11022.96,13519.21 "/>
    </g>
    <polygon class="fil27" points="6238.53,13515.02 6309.99,13928.83 6589.12,13928.83 6417.17,13513.07 "/>
    <g>
     <path class="fil7" d="M2838.98 5180.76l144.16 -387.95c201.67,-542.75 664.63,-855.07 1176.46,-793.69 511.84,61.39 973.75,484.63 1173.81,1075.55l94.43 -24.2c220.78,-56.59 460.28,5.5 659.18,170.86 198.89,165.36 338.57,418.54 384.44,696.82l50.32 -44.8c317.56,-282.7 766.74,-279 1127.07,9.3 360.33,288.3 556.17,800.67 491.39,1285.62l470.54 374.99 -1388.02 -312.62 -4383.78 -2049.88z"/>
     <path class="fil8" d="M2838.98 5180.76l144.16 -387.95c68.78,-185.1 167.96,-343.37 289.09,-469.18 133.32,317.03 367.61,585.27 671.2,759.79 404.95,232.78 891.96,275.11 1331,115.68l26.46 153.46c40.49,234.83 177.22,442.08 377.18,571.7 199.96,129.62 444.97,169.83 675.87,110.92l68.79 169.34c160.56,395.26 494.23,694.54 904.56,811.33 273.91,77.97 561.58,68.79 825.11,-20.71 -0.52,57.82 -4.48,115.67 -12.16,173.13l470.54 374.99 -1388.02 -312.62 -4383.78 -2049.88z"/>
     <path class="fil9" d="M2430.11 5158.81l465.67 304.46c1719.41,1124.17 3675.25,1836 5715,2079.99l-857.25 -264.58c-991.42,-305.99 -1895.07,-845.11 -2635.25,-1572.2 -709.51,-696.96 -1762.54,-911.5 -2688.17,-547.67z"/>
    </g>
    <g>
     <path class="fil7" d="M7606 7825.83l-318.28 -113.79 -86.27 -252.19c-69.59,-203.4 -212.27,-358.72 -391.19,-425.82 -178.93,-67.1 -376.55,-39.42 -541.83,75.9l-70.3 -183.63c-152.44,-398.21 -515.23,-622.33 -890.32,-550.02 -344.2,66.35 -619.05,341.44 -706.25,725.22l-472.95 18.92 3477.39 705.41z"/>
     <path class="fil8" d="M7606 7825.83l-318.28 -113.79 -54.05 -157.95c-124.83,11.17 -251.85,-4.98 -371.88,-48.86 -217.57,-79.56 -393.83,-243.51 -488.89,-454.74 -35.88,16.16 -70.85,35.98 -104.48,59.45l-43.73 -114.26c-270.59,243.19 -647.05,338.37 -1004.7,247.42 -218.4,-55.54 -409.81,-175.41 -553.44,-338.41 -27.31,61.67 -49.24,127.46 -65,196.82l-472.94 18.9 3477.39 705.42z"/>
     <path class="fil9" d="M7606 7825.83c-988.24,-212.59 -1886.19,-398.4 -2911.93,-627.32 -373.31,-83.32 -601.81,-91.59 -653.68,-63.65 -48.02,25.86 498.91,281.12 778.8,338.27 1037.01,211.73 1670.4,199.54 2786.81,352.7z"/>
    </g>
    <g>
     <path class="fil7" d="M14649.72 7788.76l211.81 -131.78 22.86 -195.38c18.43,-157.58 97.1,-291.89 215.67,-368.23 118.59,-76.34 265.46,-87.23 402.68,-29.86l22.04 -143.43c47.78,-311.04 274.46,-529.35 556.31,-535.76 258.64,-5.88 499.84,149.62 622.67,412.84l344.1 -60.21 -2398.14 1051.81z"/>
     <path class="fil8" d="M14649.72 7788.76l211.82 -131.78 14.32 -122.37c91.78,-11.44 180.88,-42.91 260.61,-93.31 144.51,-91.36 246.05,-237.15 281.64,-404.35 28.4,6.05 56.72,14.89 84.64,26.57l13.7 -89.25c233.16,133.17 519.56,143.03 763.34,21.59 148.86,-74.17 268.21,-190.52 346.36,-330.52 29.32,40.22 55.42,84.25 77.62,131.82l344.08 -60.22 -2398.13 1051.82z"/>
     <path class="fil9" d="M14649.72 7788.76c679.64,-307.66 1298.32,-581.89 2002.46,-907.19 256.26,-118.39 419.79,-160.03 461.57,-147.98 38.67,11.16 -315.98,280.68 -508.94,365.6 -714.94,314.66 -1173.72,404.77 -1955.09,689.57z"/>
    </g>
    <g>
     <path class="fil7" d="M15618.81 3683.15l88.87 -31.77 24.09 -70.42c19.43,-56.79 59.27,-100.16 109.22,-118.89 49.96,-18.74 105.14,-11.01 151.29,21.19l19.63 -51.27c42.56,-111.19 143.86,-173.77 248.59,-153.58 96.1,18.53 172.85,95.34 197.19,202.5l132.06 5.28 -970.94 196.96z"/>
     <path class="fil8" d="M15618.81 3683.15l88.87 -31.77 15.09 -44.11c34.85,3.12 70.32,-1.38 103.84,-13.64 60.74,-22.21 109.96,-67.99 136.5,-126.97 10.02,4.51 19.78,10.05 29.17,16.6l12.21 -31.9c75.55,67.9 180.67,94.48 280.53,69.08 60.98,-15.51 114.42,-48.97 154.53,-94.49 7.62,17.22 13.75,35.59 18.15,54.96l132.05 5.28 -970.94 196.96z"/>
     <path class="fil9" d="M15618.81 3683.15c275.93,-59.36 526.65,-111.24 813.05,-175.16 104.24,-23.26 168.04,-25.57 182.52,-17.77 13.41,7.22 -139.3,78.49 -217.45,94.45 -289.55,59.12 -466.4,55.71 -778.12,98.48z"/>
    </g>
    <g>
     <path class="fil7" d="M13271.99 8184.02l-52.51 -181.83c-73.47,-254.39 -267.87,-432.75 -494.01,-453.27 -226.14,-20.51 -440.37,120.79 -544.39,359.08l-40.74 -19.22c-95.26,-44.94 -201.99,-40.04 -293.77,13.47 -91.78,53.5 -160.02,150.62 -187.81,267.29l-20.83 -24.1c-131.45,-152.09 -328.53,-191.89 -494.49,-99.85 -165.96,92.03 -265.97,296.59 -250.94,513.24l-216.68 119.54 617.29 -7.87 1978.88 -486.48z"/>
     <path class="fil8" d="M13271.99 8184.02l-52.51 -181.83c-25.06,-86.76 -64.18,-164.66 -113.83,-230.49 -67.21,125.45 -177.35,220.39 -315.29,268.23 -183.99,63.8 -398.72,37.3 -586.85,-72.44l-15.84 64.23c-24.23,98.29 -89.9,175.73 -181.16,213.61 -91.26,37.88 -199.81,32.77 -299.44,-14.11l-34.84 67.23c-81.31,156.92 -235.88,256.18 -419.04,269.1 -122.26,8.63 -248.15,-21.88 -361.25,-85.06 -1.36,25.17 -1.22,50.67 0.56,76.34l-216.68 119.54 617.29 -7.87 1978.88 -486.48z"/>
     <path class="fil9" d="M13451.89 8212.17l-212.6 89.35c-784.99,329.91 -1662.28,458.87 -2563.47,376.85l383.21 -35.92c443.19,-41.55 854.33,-192.48 1198.96,-440.13 330.35,-237.4 798.04,-233.54 1193.9,9.85z"/>
    </g>
    <path class="fil1" d="M13744.14 2579.7l-560.73 0c-86.44,128.08 -173.43,254.5 -260.91,379.15 -367.54,523.71 -756.76,912.9 -1105.59,1105.52 -231.19,127.66 -489.45,387.55 -732.4,737.02l-133.02 191.34c290.61,-335.19 579.21,-565.88 833.35,-666.15 361.44,-142.59 772.48,-473.29 1185.63,-953.88 258.7,-300.92 518.15,-566.85 773.67,-793z"/>
    <g>
     <path class="fil7" d="M8339.24 8579.7l-88.87 -31.77 -24.09 -70.42c-19.43,-56.79 -59.27,-100.16 -109.22,-118.89 -49.96,-18.74 -105.14,-11.01 -151.29,21.19l-19.63 -51.27c-42.56,-111.19 -143.86,-173.77 -248.59,-153.58 -96.1,18.53 -172.85,95.34 -197.19,202.5l-132.06 5.28 970.94 196.96z"/>
     <path class="fil8" d="M8339.24 8579.7l-88.87 -31.77 -15.09 -44.11c-34.85,3.12 -70.32,-1.38 -103.84,-13.64 -60.74,-22.21 -109.96,-67.99 -136.5,-126.97 -10.02,4.51 -19.78,10.05 -29.17,16.6l-12.21 -31.9c-75.55,67.9 -180.67,94.48 -280.53,69.08 -60.98,-15.51 -114.42,-48.97 -154.53,-94.49 -7.62,17.22 -13.75,35.59 -18.15,54.96l-132.05 5.28 970.94 196.96z"/>
     <path class="fil9" d="M8339.24 8579.7c-275.93,-59.36 -526.65,-111.24 -813.05,-175.16 -104.24,-23.26 -168.04,-25.57 -182.52,-17.77 -13.41,7.22 139.3,78.49 217.45,94.45 289.55,59.12 466.4,55.71 778.12,98.48z"/>
    </g>
    <g>
     <polygon class="fil7" points="2959.57,8526.24 3172.21,8659.86 3383.28,8392.62 3150.48,8533.27 "/>
     <polygon class="fil7" points="3029.89,8179.89 3242.53,8313.51 3453.6,8046.27 3220.8,8186.92 "/>
     <polygon class="fil7" points="3383.28,8526.24 3595.92,8659.86 3806.99,8392.62 3574.19,8533.27 "/>
    </g>
    <g>
     <polygon class="fil7" points="14193,7522.98 14033.72,7623.07 13875.61,7422.89 14050,7528.25 "/>
     <polygon class="fil7" points="14140.32,7263.54 13981.04,7363.63 13822.93,7163.44 13997.32,7268.8 "/>
     <polygon class="fil7" points="13875.61,7522.98 13716.33,7623.07 13558.22,7422.89 13732.6,7528.25 "/>
    </g>
   </g>
   <g>
    <g>
     <path class="fil28" d="M2959.58 12025.37c232.34,0 420.68,188.34 420.68,420.68 0,232.34 -188.34,420.68 -420.68,420.68 -232.34,0 -420.68,-188.34 -420.68,-420.68 0,-232.34 188.34,-420.68 420.68,-420.68z"/>
     <path class="fil28" d="M3269.14 11832.23c169.5,0 306.91,137.41 306.91,306.91 0,169.5 -137.41,306.91 -306.91,306.91 -169.5,0 -306.91,-137.41 -306.91,-306.91 0,-169.5 137.41,-306.91 306.91,-306.91z"/>
    </g>
    <path class="fil28" d="M15307.78 11564.57c273.22,0 494.71,221.49 494.71,494.71 0,273.22 -221.49,494.71 -494.71,494.71 -273.22,0 -494.71,-221.49 -494.71,-494.71 0,-273.22 221.49,-494.71 494.71,-494.71z"/>
    <path class="fil28" d="M14436.38 10797.71c133.96,0 242.55,108.59 242.55,242.55 0,133.96 -108.59,242.55 -242.55,242.55 -133.96,0 -242.55,-108.59 -242.55,-242.55 0,-133.96 108.59,-242.55 242.55,-242.55z"/>
    <path class="fil28" d="M13749.37 9760.54c233.82,0 423.37,189.55 423.37,423.37 0,233.82 -189.55,423.37 -423.37,423.37 -233.82,0 -423.37,-189.55 -423.37,-423.37 0,-233.82 189.55,-423.37 423.37,-423.37z"/>
    <path class="fil28" d="M16056.93 7461.18c233.82,0 423.37,189.55 423.37,423.37 0,233.82 -189.55,423.37 -423.37,423.37 -233.82,0 -423.37,-189.55 -423.37,-423.37 0,-233.82 189.55,-423.37 423.37,-423.37z"/>
    <path class="fil28" d="M16661.57 8307.92c100.11,0 181.27,81.16 181.27,181.27 0,100.11 -81.16,181.27 -181.27,181.27 -100.11,0 -181.27,-81.16 -181.27,-181.27 0,-100.11 81.16,-181.27 181.27,-181.27z"/>
   </g>
  </g>
 </g>
</svg>
